<svg id="Layer_1" enable-background="new 0 0 512 512" height="512" viewBox="0 0 512 512" width="512" xmlns="http://www.w3.org/2000/svg"><g><path d="m474.312 378.596h-436.741c-25.742 0-45.774 25.884-34.224 53.296 12.325 29.281 41.296 48.077 73.065 48.077h359.059c30.287 0 60.258-17.172 73.64-49.454 10.248-24.724-8.036-51.919-34.799-51.919z" fill="#eaae8e"/><path d="m71.983 431.892c-11.55-27.412 8.482-53.296 34.224-53.296h-68.636c-25.742 0-45.774 25.884-34.224 53.296 12.325 29.281 41.295 48.077 73.064 48.077h68.636c-31.768 0-60.739-18.796-73.064-48.077z" fill="#e39b74"/><path d="m474.398 306.382c-21.74 0-414.925 0-436.796 0-12.327 0-22.321 9.993-22.321 22.321v28.603c0 12.327 9.993 22.321 22.321 22.321h436.796c12.327 0 22.321-9.993 22.321-22.321v-28.603c0-12.327-9.994-22.321-22.321-22.321z" fill="#9d5e5e"/><path d="m83.918 357.306v-28.603c0-12.327 9.993-22.321 22.321-22.321-37.218 0-63.434 0-68.636 0-12.327 0-22.321 9.993-22.321 22.321v28.603c0 12.327 9.993 22.321 22.321 22.321h68.636c-12.328 0-22.321-9.994-22.321-22.321z" fill="#865151"/><path d="m471.071 230.492c32.228 0 51.896-35.726 34.366-62.769-52.936-81.661-144.871-135.691-249.437-135.691-104.566 0-196.501 54.03-249.437 135.692-17.53 27.043 2.138 62.769 34.366 62.769h430.142z" fill="#eaae8e"/><path d="m75.199 167.724c47.06-72.597 124.942-123.353 215.119-133.727-11.26-1.295-22.711-1.965-34.318-1.965-104.566 0-196.501 54.03-249.437 135.692-17.53 27.043 2.138 62.769 34.366 62.769h68.636c-32.228-.001-51.896-35.726-34.366-62.769z" fill="#e39b74"/><path d="m486.76 268.952h-73.841l-7.381 1.03-52.024 32.596-.891 4.834h134.137c5.5 0 9.959-4.458 9.959-9.958v-18.543c0-5.5-4.459-9.959-9.959-9.959z" fill="#f27182"/><path d="m98.672 268.952h-73.432c-5.5 0-9.958 4.458-9.958 9.958v18.543c0 5.5 4.459 9.958 9.958 9.958h133.728v-4.147l-46.13-29.36z" fill="#f27182"/><path d="m83.918 297.454v-18.543c0-5.5 4.459-9.958 9.958-9.958h-68.636c-5.5 0-9.958 4.458-9.958 9.958v18.543c0 5.5 4.459 9.958 9.958 9.958h68.636c-5.5 0-9.958-4.458-9.958-9.958z" fill="#ed5469"/><path d="m98.672 268.953 146.397 93.379c6.542 4.173 14.911 4.173 21.454 0l146.397-93.379z" fill="#ffe07d"/><path d="m167.308 268.952h-68.636l146.397 93.379c6.542 4.173 14.911 4.173 21.454 0l23.591-15.047z" fill="#ffd064"/><g><path d="m152.814 94.475c-4.267 0-7.726-3.459-7.726-7.726v-6.707c0-4.267 3.459-7.726 7.726-7.726s7.726 3.459 7.726 7.726v6.707c0 4.267-3.459 7.726-7.726 7.726z" fill="#dd8858"/></g><g><path d="m221.45 94.475c-4.267 0-7.726-3.459-7.726-7.726v-6.707c0-4.267 3.459-7.726 7.726-7.726s7.726 3.459 7.726 7.726v6.707c0 4.267-3.459 7.726-7.726 7.726z" fill="#dd8858"/></g><g><path d="m290.086 94.475c-4.267 0-7.726-3.459-7.726-7.726v-6.707c0-4.267 3.459-7.726 7.726-7.726s7.726 3.459 7.726 7.726v6.707c0 4.267-3.459 7.726-7.726 7.726z" fill="#dd8858"/></g><g><path d="m358.722 94.475c-4.267 0-7.726-3.459-7.726-7.726v-6.707c0-4.267 3.459-7.726 7.726-7.726s7.726 3.459 7.726 7.726v6.707c0 4.267-3.459 7.726-7.726 7.726z" fill="#dd8858"/></g><g><path d="m118.728 133.141c-4.267 0-7.726-3.459-7.726-7.726v-6.707c0-4.267 3.459-7.726 7.726-7.726s7.726 3.459 7.726 7.726v6.707c0 4.267-3.459 7.726-7.726 7.726z" fill="#dd8858"/></g><g><path d="m187.364 133.141c-4.267 0-7.726-3.459-7.726-7.726v-6.707c0-4.267 3.459-7.726 7.726-7.726s7.726 3.459 7.726 7.726v6.707c.001 4.267-3.459 7.726-7.726 7.726z" fill="#dd8858"/></g><g><path d="m256 133.141c-4.267 0-7.726-3.459-7.726-7.726v-6.707c0-4.267 3.459-7.726 7.726-7.726s7.726 3.459 7.726 7.726v6.707c.001 4.267-3.458 7.726-7.726 7.726z" fill="#dd8858"/></g><g><path d="m324.636 133.141c-4.267 0-7.726-3.459-7.726-7.726v-6.707c0-4.267 3.459-7.726 7.726-7.726s7.726 3.459 7.726 7.726v6.707c0 4.267-3.459 7.726-7.726 7.726z" fill="#dd8858"/></g><g><path d="m393.272 133.141c-4.267 0-7.726-3.459-7.726-7.726v-6.707c0-4.267 3.459-7.726 7.726-7.726s7.726 3.459 7.726 7.726v6.707c.001 4.267-3.459 7.726-7.726 7.726z" fill="#dd8858"/></g><path d="m486.004 229.462h-460.008c-5.917 0-10.715 4.797-10.715 10.715v19.092c0 5.917 4.797 10.715 10.715 10.715h460.008c5.917 0 10.715-4.797 10.715-10.715v-19.092c0-5.918-4.797-10.715-10.715-10.715z" fill="#95d6a4"/><path d="m83.918 259.268v-19.092c0-5.917 4.797-10.715 10.715-10.715h-68.637c-5.917 0-10.715 4.797-10.715 10.715v19.092c0 5.917 4.797 10.715 10.715 10.715h68.636c-5.917 0-10.714-4.797-10.714-10.715z" fill="#78c2a4"/></g></svg>