<svg id="Layer_1" enable-background="new 0 0 512.073 512.073" height="512" viewBox="0 0 512.073 512.073" width="512" xmlns="http://www.w3.org/2000/svg"><g><path d="m148.373 85.233v6.511c0 4.142 3.357 7.5 7.5 7.5s7.5-3.358 7.5-7.5v-6.511c0-4.142-3.357-7.5-7.5-7.5s-7.5 3.358-7.5 7.5z"/><path d="m214.998 85.233v6.511c0 4.142 3.357 7.5 7.5 7.5s7.5-3.358 7.5-7.5v-6.511c0-4.142-3.357-7.5-7.5-7.5s-7.5 3.358-7.5 7.5z"/><path d="m281.623 85.233v6.511c0 4.142 3.357 7.5 7.5 7.5s7.5-3.358 7.5-7.5v-6.511c0-4.142-3.357-7.5-7.5-7.5s-7.5 3.358-7.5 7.5z"/><path d="m348.249 85.233v6.511c0 4.142 3.357 7.5 7.5 7.5s7.5-3.358 7.5-7.5v-6.511c0-4.142-3.357-7.5-7.5-7.5s-7.5 3.358-7.5 7.5z"/><path d="m115.285 122.765v6.511c0 4.142 3.357 7.5 7.5 7.5s7.5-3.358 7.5-7.5v-6.511c0-4.142-3.357-7.5-7.5-7.5s-7.5 3.358-7.5 7.5z"/><path d="m181.911 122.765v6.511c0 4.142 3.357 7.5 7.5 7.5s7.5-3.358 7.5-7.5v-6.511c0-4.142-3.357-7.5-7.5-7.5s-7.5 3.358-7.5 7.5z"/><path d="m248.536 122.765v6.511c0 4.142 3.357 7.5 7.5 7.5s7.5-3.358 7.5-7.5v-6.511c0-4.142-3.357-7.5-7.5-7.5s-7.5 3.358-7.5 7.5z"/><path d="m315.161 122.765v6.511c0 4.142 3.357 7.5 7.5 7.5s7.5-3.358 7.5-7.5v-6.511c0-4.142-3.357-7.5-7.5-7.5s-7.5 3.358-7.5 7.5z"/><path d="m381.787 122.765v6.511c0 4.142 3.357 7.5 7.5 7.5s7.5-3.358 7.5-7.5v-6.511c0-4.142-3.357-7.5-7.5-7.5s-7.5 3.358-7.5 7.5z"/><path d="m431.227 88.568c-3.335-2.455-8.031-1.742-10.486 1.594s-1.742 8.031 1.594 10.486c27.557 20.284 50.952 45.106 69.539 73.778 6.431 9.921 6.884 22.073 1.213 32.508-5.731 10.546-16.304 16.842-28.279 16.842h-417.542c-11.976 0-22.548-6.296-28.279-16.842-5.671-10.435-5.218-22.587 1.213-32.508 52.077-80.335 140.24-128.297 235.836-128.297 48.124 0 95.608 12.384 137.318 35.812 3.608 2.027 8.183.745 10.212-2.866 2.028-3.611.745-8.184-2.866-10.212-43.948-24.686-93.973-37.734-144.664-37.734-100.701 0-193.57 50.519-248.423 135.137-9.47 14.607-10.145 32.488-1.807 47.83 3.455 6.356 8.125 11.637 13.63 15.677-2.831 3.167-4.568 7.331-4.568 11.903v16.532c0 3.77 1.178 7.266 3.176 10.155-1.992 2.803-3.176 6.219-3.176 9.912v18c0 5.342 2.454 10.12 6.292 13.271-3.934 4.972-6.292 11.245-6.292 18.063v25.765c0 7.598 2.923 14.525 7.701 19.721-6.061 3.368-11.334 8.159-15.297 14.13-8.277 12.469-9.517 27.946-3.401 42.46 13.107 31.138 43.66 51.258 77.838 51.258h156.827c4.143 0 7.5-3.358 7.5-7.5s-3.357-7.5-7.5-7.5h-156.827c-28.127 0-53.253-16.517-64.014-42.08-4.13-9.803-3.374-20.134 2.074-28.343 5.396-8.127 14.455-12.979 24.236-12.979h.03 423.916c9.871 0 18.68 4.712 24.169 12.928 5.457 8.169 6.435 18.045 2.683 27.097-11.09 26.756-35.826 43.377-64.554 43.377h-156.713c-4.143 0-7.5 3.358-7.5 7.5s3.357 7.5 7.5 7.5h156.714c34.379 0 65.157-20.66 78.411-52.634 5.619-13.557 4.099-28.949-4.067-41.173-3.94-5.897-9.158-10.637-15.145-13.985 4.809-5.203 7.754-12.151 7.754-19.777v-25.765c0-6.818-2.358-13.091-6.292-18.063 3.838-3.151 6.292-7.929 6.292-13.271v-18c0-3.693-1.184-7.109-3.176-9.912 1.998-2.888 3.176-6.385 3.176-10.155v-16.532c0-4.572-1.737-8.736-4.568-11.903 5.506-4.04 10.176-9.321 13.63-15.677 8.338-15.342 7.663-33.223-1.807-47.83-19.573-30.196-44.212-56.337-73.231-77.698zm-401.358 189.708c0-1.195.972-2.167 2.167-2.167h.734 68.357l35.014 22.333c-10.685 0-92.049 0-104.105 0-1.195 0-2.167-.972-2.167-2.167zm14.167 89.265c-7.812 0-14.167-6.355-14.167-14.167v-25.765c0-7.812 6.355-14.167 14.167-14.167h115.622l81.733 52.132c1.193.761 2.793 1.576 3.692 1.966h-201.047zm205.422-14.612-120.437-76.82h253.631l-36.858 23.51s-83.575 53.309-83.577 53.31c-3.875 2.472-8.884 2.473-12.759 0zm232.745.445c0 7.812-6.355 14.167-14.167 14.167h-.084-201.361c.046-.02.09-.045.135-.065 1.318-.583 2.53-1.245 3.557-1.901l81.732-52.133h116.021c7.812 0 14.167 6.355 14.167 14.167zm0-57.098c0 1.195-.972 2.167-2.167 2.167-12.02 0-93.759 0-104.504 0l35.014-22.333h68.756.734c1.195 0 2.167.972 2.167 2.167zm0-38.067c0 1.599-1.302 2.9-2.901 2.9-17.498 0-428.014 0-446.531 0-1.6 0-2.901-1.301-2.901-2.9v-16.532c0-1.6 1.302-2.901 2.901-2.901h446.531c1.6 0 2.901 1.301 2.901 2.901z"/></g></svg>