<svg id="Outline" height="512" viewBox="0 0 512 512" width="512" xmlns="http://www.w3.org/2000/svg"><path d="m456 16h-384a8 8 0 0 0 -8 8v24h-8a8 8 0 0 0 0 16h8v32h-8a8 8 0 0 0 0 16h8v32h-8a8 8 0 0 0 0 16h8v32h-8a8 8 0 0 0 0 16h8v32h-8a8 8 0 0 0 0 16h8v32h-8a8 8 0 0 0 0 16h8v32h-8a8 8 0 0 0 0 16h8v32h-8a8 8 0 0 0 0 16h8v32h-8a8 8 0 0 0 0 16h8v40a8 8 0 0 0 8 8h384a8 8 0 0 0 8-8v-464a8 8 0 0 0 -8-8zm-344 464h-32v-32h8a8 8 0 0 0 0-16h-8v-32h8a8 8 0 0 0 0-16h-8v-32h8a8 8 0 0 0 0-16h-8v-32h8a8 8 0 0 0 0-16h-8v-32h8a8 8 0 0 0 0-16h-8v-32h8a8 8 0 0 0 0-16h-8v-32h8a8 8 0 0 0 0-16h-8v-32h8a8 8 0 0 0 0-16h-8v-32h8a8 8 0 0 0 0-16h-8v-16h32zm336 0h-320v-448h320z"/><path d="m152 304h56a8 8 0 0 0 0-16h-56a8 8 0 0 0 0 16z"/><path d="m256 288h-16a8 8 0 0 0 0 16h16a8 8 0 0 0 0-16z"/><path d="m152 352h56a8 8 0 0 0 0-16h-56a8 8 0 0 0 0 16z"/><path d="m256 336h-16a8 8 0 0 0 0 16h16a8 8 0 0 0 0-16z"/><path d="m152 400h56a8 8 0 0 0 0-16h-56a8 8 0 0 0 0 16z"/><path d="m256 384h-16a8 8 0 0 0 0 16h16a8 8 0 0 0 0-16z"/><path d="m208 432h-56a8 8 0 0 0 0 16h56a8 8 0 0 0 0-16z"/><path d="m256 432h-16a8 8 0 0 0 0 16h16a8 8 0 0 0 0-16z"/><path d="m312 296a8 8 0 0 0 8 8h56a8 8 0 0 0 0-16h-56a8 8 0 0 0 -8 8z"/><path d="m408 304h16a8 8 0 0 0 0-16h-16a8 8 0 0 0 0 16z"/><path d="m376 336h-56a8 8 0 0 0 0 16h56a8 8 0 0 0 0-16z"/><path d="m408 352h16a8 8 0 0 0 0-16h-16a8 8 0 0 0 0 16z"/><path d="m376 384h-56a8 8 0 0 0 0 16h56a8 8 0 0 0 0-16z"/><path d="m408 400h16a8 8 0 0 0 0-16h-16a8 8 0 0 0 0 16z"/><path d="m376 432h-56a8 8 0 0 0 0 16h56a8 8 0 0 0 0-16z"/><path d="m408 448h16a8 8 0 0 0 0-16h-16a8 8 0 0 0 0 16z"/><path d="m280 280v176a8 8 0 0 0 16 0v-176a8 8 0 0 0 -16 0z"/><path d="m208.036 96.716a8.135 8.135 0 0 0 .135.93v.009a7.883 7.883 0 0 0 .248.895c.023.067.049.134.074.2q.132.36.3.7c.019.04.032.083.052.123l15.019 30.039-6.619 92.673a24 24 0 0 0 23.939 25.715h13.632a24 24 0 0 0 23.939-25.71l-6.619-92.673 15.019-30.039c.02-.04.033-.083.052-.123q.165-.343.3-.7c.025-.067.051-.134.074-.2a8.045 8.045 0 0 0 .248-.892v-.013a7.9 7.9 0 0 0 .135-.929c.008-.09.008-.18.014-.27.008-.149.022-.3.022-.446v-32.005a8 8 0 0 0 -16 0v24h-16v-24a8 8 0 0 0 -16 0v24h-16v-24a8 8 0 0 0 -16 0v32c0 .15.014.3.022.446.006.09.006.18.014.27zm52.636 132.736a7.922 7.922 0 0 1 -5.856 2.548h-13.632a8 8 0 0 1 -7.98-8.57l6.245-87.43h17.1l6.245 87.43a7.925 7.925 0 0 1 -2.122 6.022zm6.384-125.452-8 16h-22.112l-8-16z"/><path d="m300.422 151.155 11.578 5.789v2.66l-6.2 62.008a24 24 0 0 0 23.88 26.388h12.64a24 24 0 0 0 23.88-26.388l-6.2-62.012v-95.6a8 8 0 0 0 -8-8c-48.86 0-55.71 83.833-55.978 87.4a8 8 0 0 0 4.4 7.755zm47.83 78.213a7.91 7.91 0 0 1 -5.932 2.632h-12.64a8 8 0 0 1 -7.961-8.8l5.521-55.2h17.52l5.521 55.2a7.909 7.909 0 0 1 -2.029 6.168zm-28.338-123.058c6.148-18.09 14.226-29.095 24.086-32.852v78.542h-16a8 8 0 0 0 -4.422-7.155l-11.029-5.515a175.629 175.629 0 0 1 7.365-33.02z"/></svg>