<svg id="Capa_1" enable-background="new 0 0 512 512" height="512" viewBox="0 0 512 512" width="512" xmlns="http://www.w3.org/2000/svg"><g><g><path d="m502.314 393.02c0-19.431-11.208-36.499-27.987-44.517 1.752-4.67 2.662-9.55 2.662-14.559l-.001-.347c-.125-14.623-9.782-27.077-23.086-31.627v-2.442c0-80.39-65.401-145.791-145.791-145.791h-42.106v-54.62l107.378-46.769c3.858-1.681 6.252-5.598 5.987-9.798-.266-4.2-3.133-7.785-7.172-8.968l-113.384-33.18c-3.025-.883-6.286-.294-8.806 1.595s-4.004 4.853-4.004 8.003v143.737h-42.106c-80.39 0-145.791 65.401-145.791 145.791v2.443c-13.302 4.551-22.957 17-23.082 31.599l-.002.374c0 5.01.911 9.892 2.664 14.563-16.96 8.141-28.002 25.718-28.002 44.513 0 26.894 21.638 48.817 48.422 49.318v13.714c0 30.85 25.098 55.947 55.947 55.947h283.902c30.849 0 55.946-25.098 55.946-55.947v-13.713c26.543-.487 48.412-22.766 48.412-49.319zm-236.309-369.675 74.098 21.684-74.098 32.273zm190.984 310.599c0 26.764-39.341 35.748-59.666 35.888-20.523.157-61.127-8.704-60.988-36.064.064-7.527 6.438-13.65 14.207-13.65h92.239c7.771 0 14.144 6.123 14.208 13.677zm-154.07 22.26c-13.895 10.366-32.444 14.055-49.519 13.598-19.928-.525-57.927-9.868-57.72-36.034.064-7.526 6.438-13.649 14.208-13.649h92.239c7.77 0 14.143 6.123 14.208 13.677.053 9.296-6.283 17.138-13.416 22.408zm-224.812-56.676c0-69.361 56.43-125.791 125.791-125.791h104.213c69.361 0 125.791 56.43 125.791 125.791v.586h-355.795zm-23.083 34.239c.064-7.526 6.438-13.649 14.208-13.649h92.239c7.77 0 14.143 6.123 14.208 13.677-.061 26.885-38.936 35.888-59.657 36.037-20.537.133-61.225-8.669-60.998-36.065zm418.699 80.002c-5.541 5.541-12.909 8.593-20.749 8.593h-152.687c-5.522 0-10 4.478-10 10v.001.001c0 5.522 4.478 10 10 10h133.615v13.688c0 19.821-16.125 35.947-35.946 35.947h-283.902c-19.821 0-35.947-16.126-35.947-35.947v-13.688h134.244c5.523 0 10-4.478 10-10v-.001-.002c0-5.522-4.477-10-10-10h-153.311c-16.187 0-29.355-13.163-29.355-29.342 0-12.1 7.728-23.29 19.092-27.517 32.831 33.594 103.272 33.487 134.886-1.838h4.031c31.925 35.67 104.699 35.665 136.624 0h4.031c31.613 35.326 102.05 35.428 134.886 1.838 11.315 4.193 19.08 15.037 19.08 27.517-.001 7.841-3.051 15.21-8.592 20.75z"/><path d="m200.869 206.435c-3.906-3.906-10.238-3.905-14.142.001-3.905 3.905-3.905 10.237 0 14.142l7.487 7.486c1.953 1.953 4.512 2.929 7.071 2.929s5.119-.977 7.071-2.93c3.905-3.905 3.905-10.237 0-14.142z"/><path d="m309.609 206.435-7.487 7.486c-3.906 3.904-3.906 10.236-.001 14.142 1.952 1.953 4.512 2.93 7.071 2.93s5.118-.977 7.07-2.929l7.487-7.486c3.906-3.904 3.906-10.236.001-14.142-3.901-3.905-10.234-3.905-14.141-.001z"/><path d="m255.766 201.956c-5.523 0-10 4.478-10 10v10.588c0 5.522 4.477 10 10 10s9.999-4.478 9.999-10v-10.588c.001-5.523-4.476-10-9.999-10z"/><path d="m265.24 428.54c-2.094-5.032-8.017-7.499-13.061-5.41-5.03 2.083-7.498 8.029-5.41 13.06 2.09 5.036 8.022 7.491 13.06 5.41 5.028-2.077 7.507-8.033 5.411-13.06z"/></g></g></svg>