<svg id="line" height="512" viewBox="0 0 64 64" width="512" xmlns="http://www.w3.org/2000/svg"><path d="m62.316 42.052-6-2a1 1 0 0 0 -1.211.5l-7 14a1 1 0 0 0 .421 1.328l13 7a1.007 1.007 0 0 0 .474.12 1 1 0 0 0 1-1v-19a1 1 0 0 0 -.684-.948z" fill="#c4a2fc"/><path d="m50.52 39.49a1.81 1.81 0 0 1 -.57-1c-.56-3.05-5.93-6.01-8.07-7.07a3.989 3.989 0 0 0 -1.79-.42h-8.09a2.975 2.975 0 0 0 -2.813 4.013 1.58 1.58 0 0 1 .17-.013h9.161c.75 0 1.357.447 1.357 1s-.607 1-1.357 1h-22.558a1.959 1.959 0 0 0 -1.04 3.62c6.16 3.59 24.08 5.38 24.08 5.38l8.893 4.5 4.581-9.161z" fill="#c4a2fc"/><g fill="#151a6a"><path d="m50 35h-1.025a23.03 23.03 0 0 0 -20.214-21.828 3 3 0 1 0 -5.522 0 23.03 23.03 0 0 0 -20.214 21.828h-1.025a1 1 0 0 0 -1 1v2.5a2.5 2.5 0 0 0 2.5 2.5h45a2.5 2.5 0 0 0 2.5-2.5v-2.5a1 1 0 0 0 -1-1zm-25-23a1 1 0 1 1 1 1 1 1 0 0 1 -1-1zm1 3a21.008 21.008 0 0 1 20.949 20h-41.898a21.008 21.008 0 0 1 20.949-20zm23 23.5a.5.5 0 0 1 -.5.5h-45a.5.5 0 0 1 -.5-.5v-1.5h46z"/><path d="m41 24.335a19.162 19.162 0 0 0 -6.5-5.329 1 1 0 0 0 -.9 1.787 17.183 17.183 0 0 1 5.814 4.77 1 1 0 1 0 1.586-1.228z"/></g></svg>